<svg xmlns="http://www.w3.org/2000/svg" aria-hidden="true" overflow="hidden" style="position:absolute;width:0;height:0"><defs>
<symbol id="facebook1" viewBox="0 0 32 32"><path fill="var(--color1, #1877f2)" d="M32 16a16 16 0 1 0-19 16V21H9v-5h4v-4c0-4 3-6 7-6l3 1v3h-2c-2 0-3 2-3 3v3h5l-1 5h-4v11c8-1 14-8 14-16z"/></symbol>
<symbol id="github" viewBox="0 0 32 32"><path d="M16 0a16 16 0 0 0-5 32l1-1v-3c-4 1-5-2-5-2l-2-2c-2-1 0-1 0-1l2 1c2 3 4 2 5 2l1-3c-3 0-7-1-7-7l1-5 1-4 4 2a15 15 0 0 1 8 0l4-2 1 4 1 5c0 6-4 7-7 7l1 3v5l1 1a16 16 0 0 0-5-32z"/></symbol>
<symbol id="github1" viewBox="0 0 32 32"><path d="M16 0a16 16 0 0 0-5 32l1-1v-3c-4 1-5-2-5-2l-2-2c-2-1 0-1 0-1l2 1c2 3 4 2 5 2l1-3c-3 0-7-1-7-7l1-5 1-4 4 2a15 15 0 0 1 8 0l4-2 1 4 1 5c0 6-4 7-7 7l1 3v5l1 1a16 16 0 0 0-5-32z"/></symbol>
<symbol id="instagram1" viewBox="0 0 32 32"><path fill="var(--color2, #e4405f)" d="M16 0A115 115 0 0 0 6 1C4 1 4 2 3 3L1 6 0 9a112 112 0 0 0 1 17c0 2 1 2 2 3s1 2 3 2l3 1a112 112 0 0 0 17-1c2 0 2-1 3-2s2-1 2-3l1-3a112 112 0 0 0-1-17c0-2-1-2-2-3s-1-2-3-2l-3-1h-7zm0 3a113 113 0 0 1 9 1l2 1 1 2 1 3a112 112 0 0 1-1 15l-1 2-2 1-3 1a113 113 0 0 1-16-1l-1-1-2-2V7l2-2 1-2h10zm0 5a8 8 0 1 0 0 16 8 8 0 0 0 0-16zm0 13a5 5 0 1 1 0-10 5 5 0 0 1 0 10zM26 7a2 2 0 1 1-3 0 2 2 0 0 1 3 0z"/></symbol>
<symbol id="linkedin1" viewBox="0 0 32 32"><path fill="var(--color3, #0077b5)" d="M27 27h-4v-7c0-2-1-4-3-4s-3 2-3 4v7h-5V12h5v2c1-1 2-2 5-2 4 0 5 3 5 7zM7 10a3 3 0 1 1 0-6 3 3 0 0 1 0 6zm2 17H5V12h4zM30 0H2L0 2v28l2 2h28l2-2V2l-2-2z"/></symbol>
<symbol id="telegram" viewBox="0 0 32 32"><path fill="var(--color4, #2ca5e0)" d="m32 5-5 23c0 1-1 2-3 1l-7-5-3 3-2 1-1-1-3-9-7-2v-2L30 3c1-1 2 0 2 2z"/></symbol>
<symbol id="viber" viewBox="0 0 32 32"><path fill="var(--color5, #665cac)" d="M15 0C13 0 7 0 4 3 2 6 1 9 1 13s0 12 7 14v3l1 2 3-2 1-2c6 1 10 0 10-1 1 0 7-1 8-8 1-9-1-14-3-16-1-1-4-3-11-3h-2zm0 2h1c7 0 9 2 10 3 2 2 3 6 3 13-1 6-6 7-7 7l-8 1-4 5H9v-6c-6-2-6-8-6-12 0-3 1-6 3-8s7-3 9-3zm1 4h-1l1 1c2 0 4 0 5 2 2 1 2 3 2 5l1 1v-1l-2-6-6-2zm-6 1L8 8a2 2 0 0 0-1 2h1l1 4 3 4 5 3 3 2h1l1-1 1-1v-2l-3-2h-1l-1 1h-1c-4-1-5-5-5-5v-1h1v-2l-2-3h-1zm6 1v1l4 1a5 5 0 0 1 1 4h1l-1-4-4-2h-1zm1 2v1l2 2h1c0-2-1-3-3-3z"/></symbol>
<symbol id="whatsapp" viewBox="0 0 32 32"><path fill="var(--color6, #25d366)" d="m23 19-2-1h-1l-2 2-4-2-2-3v-1l1-1v-1l-1-3-1-1h-1L9 9l-1 3 2 4c0 1 2 5 6 6l3 1h2l3-2v-1l-1-1zm-7 10-7-2-5 1 1-5A13 13 0 0 1 16 3a13 13 0 0 1 13 13c0 7-6 13-13 13zM27 5c-3-3-7-5-11-5A16 16 0 0 0 2 24l-2 8 8-2 8 2A16 16 0 0 0 27 5z"/></symbol>
<symbol id="close-btn" viewBox="0 0 32 32"><path d="m27 7-2-2-8 8-8-8-2 2 8 8-8 8 2 2 8-8 8 8 2-2-8-8 8-8z"/></symbol>
<symbol id="enter" viewBox="0 0 32 32"><path d="M12 16H2v-4h10V8l6 6-6 6zM32 0v26l-12 6v-6H8v-8h2v6h10V6l8-4H10v8H8V0z"/></symbol>
<symbol id="key" viewBox="0 0 32 32"><path d="M22 0a10 10 0 0 0-10 12L0 24v6l2 2h2v-2h4v-4h4v-4h4l3-3a10 10 0 0 0 13-9c0-6-4-10-10-10zm3 10a3 3 0 1 1 0-6 3 3 0 0 1 0 6z"/></symbol>
<symbol id="sign-in" viewBox="0 0 24 28"><path d="m19 14-1 1-8 8H8v-5H1l-1-1v-6l1-1h7V6l1-1h1l8 8v1zm5-5v11c0 2-2 4-4 4h-6l1-2h5l2-2V9c0-2-1-3-2-3h-6l1-2h5c2 0 4 2 4 5z"/></symbol>
<symbol id="log-in" viewBox="0 0 24 24"><path d="M15 4h4a1 1 0 0 1 1 1v14a1 1 0 0 1-1 1h-4a1 1 0 0 0 0 2h4a3 3 0 0 0 3-3V5a3 3 0 0 0-3-3h-4a1 1 0 0 0 0 2zm-2 7H3a1 1 0 0 0 0 2h10l-4 3a1 1 0 1 0 2 2l5-5a1 1 0 0 0 0-2l-5-5a1 1 0 1 0-2 2z"/></symbol>
<symbol id="diagram" viewBox="0 0 32 32"><path fill="var(--color8, #2196f3)" d="M15 15h1v5h-1v-5zm4 2h1v3h-1v-3zm-8 2h1v1h-1v-1zm-4-1h2v2H7v-2z"/><path fill="var(--color7, #212121)" d="M2 28h25l2-1v-2l-2-2V10l3-3a2 2 0 1 0-1-1l-2 2V7l-2-2H4L2 7v16l-2 2v2l2 1zM30 5a1 1 0 0 1 0 1 1 1 0 0 1 0-1zM3 7l1-1h21l1 1v2l-1 1V8H4v13l1 1h19l1-1v-9l1-1v12H3V7zm5 7a2 2 0 1 0 1 3l2 1 1-1 4-4 3 3h1l3-3v8H5V9h18v2l-3 4-4-3h-1l-4 4h-1v-1l-2-1zm1 1a1 1 0 0 1-2 0 1 1 0 0 1 2 0zm3 9h5v1h-5v-1zM1 25l1-1h9v1l1 1h5l1-1v-1h9l1 1v2H1v-2z"/></symbol>
<symbol id="envelope" viewBox="0 0 43 32"><path fill="var(--color9, #757575)" d="M39 0H4C2 0 0 2 0 4v24c0 2 2 4 4 4h35c2 0 4-2 4-4V4c0-2-2-4-4-4zm0 3L21 18 3 3h36zm0 26H4l-1-1V6l17 15a1 1 0 0 0 2 0L40 6v22l-1 1z"/></symbol>
<symbol id="facebook" viewBox="0 0 32 32"><path fill="var(--color10, #afb1b8)" d="M21 5h3V0h-4c-4 0-7 3-7 8v4H8v6h5v14h6V18h4l1-6h-5V8c0-2 0-3 2-3z"/></symbol>
<symbol id="instagram" viewBox="0 0 32 32"><path fill="var(--color10, #afb1b8)" d="m32 9-1-3c0-2-1-3-2-3l-2-2-4-1A108 108 0 0 0 6 1C4 1 4 2 3 3L1 5v1L0 9a108 108 0 0 0 1 17c0 2 1 3 2 3l3 2 3 1a117 117 0 0 0 18-1l4-4v-1l1-3V9zm-3 13v3l-3 3h-1l-2 1a113 113 0 0 1-16-1l-2-1-1-2-1-3A113 113 0 0 1 4 7l1-2 2-1 3-1a114 114 0 0 1 16 1l1 1 2 2v3a113 113 0 0 1 0 12z"/><path fill="var(--color10, #afb1b8)" d="M16 8c-4 0-8 3-8 8a8 8 0 0 0 16 0c0-5-3-8-8-8zm0 13a5 5 0 0 1 0-10 5 5 0 1 1 0 10zM27 7a2 2 0 0 1-4 0 2 2 0 0 1 4 0z"/></symbol>
<symbol id="linkedin" viewBox="0 0 32 32"><path fill="var(--color10, #afb1b8)" d="M32 32V20c0-5-1-10-8-10-3 0-5 2-6 4v-3h-7v21h7V21c0-2 0-5 4-5 3 0 3 3 3 6v10h7zM1 11h6v21H1V11zM4 0C2 0 0 2 0 4s2 4 4 4 4-2 4-4-2-4-4-4z"/></symbol>
<symbol id="smartphone" viewBox="0 0 20 32"><path fill="var(--color9, #757575)" d="M17 0H3C1 0 0 1 0 3v26c0 2 1 3 3 3h14c2 0 3-1 3-3V3c0-2-1-3-3-3zM3 2h14l1 1v21H2V3l1-1zm14 28H3l-1-1v-3h16v3l-1 1z"/><path fill="var(--color9, #757575)" d="M5 27a1 1 0 0 1 0 2 1 1 0 0 1-2 0 1 1 0 0 1 0-2 1 1 0 0 1 2 0z"/></symbol>
<symbol id="twitter" viewBox="0 0 32 32"><path fill="var(--color10, #afb1b8)" d="m32 6-4 1 3-3V3l-4 2a7 7 0 0 0-11 5v1C10 11 5 8 2 4L1 8c0 2 1 4 3 5l-3-1c0 3 3 6 5 7h1-3c0 2 3 4 6 4-3 2-5 3-8 3H0A19 19 0 0 0 29 9l3-3z"/></symbol>
<symbol id="location" viewBox="0 0 32 32"><path d="M16 0C10 0 6 4 6 10c0 10 10 22 10 22s10-12 10-22c0-6-4-10-10-10zm0 16a6 6 0 1 1 0-12 6 6 0 0 1 0 12zm-4-6a4 4 0 1 1 8 0 4 4 0 0 1-8 0z"/></symbol>
<symbol id="alarm" viewBox="0 0 32 32"><path d="M16 4a14 14 0 1 0 0 28 14 14 0 0 0 0-28zm0 25a11 11 0 1 1 0-22 11 11 0 0 1 0 22zM29 9l1-3a6 6 0 0 0-11-4c4 1 8 4 10 7zM13 2A6 6 0 0 0 3 9c2-3 6-6 10-7z"/><path d="M16 18v-8h-2v10h8v-2z"/></symbol>
<symbol id="glass-clock" viewBox="0 0 32 32">
<path d="M22.781 16c4.305-2.729 7.219-7.975 7.219-14 0-0.677-0.037-1.345-0.109-2h-27.783c-0.072 0.655-0.109 1.323-0.109 2 0 6.025 2.914 11.271 7.219 14-4.305 2.729-7.219 7.975-7.219 14 0 0.677 0.037 1.345 0.109 2h27.783c0.072-0.655 0.109-1.323 0.109-2 0-6.025-2.914-11.271-7.219-14zM5 30c0-5.841 2.505-10.794 7-12.428v-3.143c-4.495-1.634-7-6.587-7-12.428v0h22c0 5.841-2.505 10.794-7 12.428v3.143c4.495 1.634 7 6.587 7 12.428h-22zM19.363 20.925c-2.239-1.27-2.363-2.918-2.363-3.918v-2.007c0-1 0.119-2.654 2.367-3.927 1.203-0.699 2.244-1.761 3.033-3.073h-12.799c0.79 1.313 1.832 2.376 3.036 3.075 2.239 1.27 2.363 2.918 2.363 3.918v2.007c0 1-0.119 2.654-2.367 3.927-2.269 1.318-3.961 3.928-4.472 7.073h15.677c-0.511-3.147-2.204-5.758-4.475-7.075z"></path>
</symbol>
<symbol id="clock" viewBox="0 0 32 32"><path fill="var(--color7, #212121)" d="M31 15a15 15 0 1 0-20 15h1v-1l4-12a2 2 0 1 0-1-3l-5-6a1 1 0 0 0-1 1l5 5v1l1 2-4 11a14 14 0 1 1 11 0l-1-2a1 1 0 0 0-1 0l-4 3v1h1l5 2a1 1 0 0 0 0-1v-2c5-2 9-7 9-14zm-15 0a1 1 0 0 1 0 1 1 1 0 0 1 0-1zm2 15 2-2 1 2h-3z"/><path fill="var(--color8, #2196f3)" d="M15 3v1a1 1 0 0 0 2 0V3a1 1 0 1 0-2 0zM4 15a1 1 0 0 0 0 1h1a1 1 0 0 0 0-1H4zm24 1a1 1 0 0 0 0-1h-1a1 1 0 0 0 0 1h1z"/></symbol>
<symbol id="stopwatch" viewBox="0 0 32 32">
<path d="M16 6.038v-2.038h4v-2c0-1.105-0.895-2-2-2h-6c-1.105 0-2 0.895-2 2v2h4v2.038c-6.712 0.511-12 6.119-12 12.962 0 7.18 5.82 13 13 13s13-5.82 13-13c0-6.843-5.288-12.451-12-12.962zM22.071 26.071c-1.889 1.889-4.4 2.929-7.071 2.929s-5.182-1.040-7.071-2.929c-1.889-1.889-2.929-4.4-2.929-7.071s1.040-5.182 2.929-7.071c1.814-1.814 4.201-2.844 6.754-2.923l-0.677 9.813c-0.058 0.822 0.389 1.181 0.995 1.181s1.053-0.36 0.995-1.181l-0.677-9.813c2.552 0.079 4.94 1.11 6.754 2.923 1.889 1.889 2.929 4.4 2.929 7.071s-1.040 5.182-2.929 7.071z"></path>
</symbol>
<symbol id="back-to" viewBox="0 0 32 32"><path d="M24 32c3-6 4-16-10-16v8L2 12 14 0v8c17-1 19 15 10 24z"/></symbol>
<symbol id="front-to" viewBox="0 0 32 32"><path d="M18 8V0l12 12-12 12v-8C4 16 5 26 8 32-1 23 1 7 18 8z"/></symbol>
<symbol id="spinner" viewBox="0 0 32 32"><path d="M16 0C7 0 0 7 0 16 0 8 6 2 13 2s13 6 13 14a3 3 0 1 0 6 0c0-9-7-16-16-16zm0 32c9 0 16-7 16-16 0 8-6 14-13 14S6 24 6 16a3 3 0 1 0-6 0c0 9 7 16 16 16z"/></symbol>
<symbol id="search" viewBox="0 0 32 32"><path d="m31 27-8-6-2-1c2-2 3-5 3-8a12 12 0 1 0-4 9l1 2 6 8h4v-4zm-19-7a8 8 0 1 1 0-16 8 8 0 0 1 0 16z"/></symbol>
<symbol id="wrench" viewBox="0 0 32 32"><path d="M31 26 17 13l1-4A9 9 0 0 0 6 0l6 6v2l-4 4H6L0 6a9 9 0 0 0 13 11l13 14h2l3-3v-2z"/></symbol>
<symbol id="config" viewBox="0 0 32 32"><path d="M29 19c-1-3 0-7 2-8l-3-6-3 1c-3 0-6-3-6-6h-6l-1 3c-2 3-5 4-8 2l-3 6 2 2c1 3 0 7-2 8l3 6 3-1c3 0 6 3 6 6h6l1-3c2-3 5-4 8-2l3-6-2-2zm-13 3a6 6 0 1 1 0-12 6 6 0 0 1 0 12z"/></symbol>
<symbol id="fire" viewBox="0 0 32 32"><path d="M10 32c-2-4-1-7 1-9l2-6 1 5c2-3 3-7 2-9 6 4 8 13 5 19 17-10 4-24 2-26v6C20 2 14 0 14 0c0 5-3 11-6 15L6 9c0 4-3 7-4 11-1 5 1 8 8 12z"/></symbol>
<symbol id="menu" viewBox="0 0 32 32"><path d="M2 6h28v6H2zm0 8h28v6H2zm0 8h28v6H2z"/></symbol>
<symbol id="menu3" viewBox="0 0 44 32"><path d="M0 6h28v6H0V6zm0 8h28v6H0v-6zm0 8h28v6H0v-6zM31 14l6 6 6-6z"/></symbol>
<symbol id="menu4" viewBox="0 0 44 32"><path d="M0 6h28v6H0V6zm0 8h28v6H0v-6zm0 8h28v6H0v-6zM31 20l6-6 6 6z"/></symbol>
<symbol id="earth" viewBox="0 0 32 32"><path d="M16 0a16 16 0 1 0 0 32 16 16 0 0 0 0-32zm0 30-6-1 8-8v-4l-1-1c-4 0-7-4-7-4H5l-1 1v6l1 1 3 2v5a14 14 0 0 1-5-17h5l4-4V3a14 14 0 0 1 10 0v1a6 6 0 0 0 0 8 6 6 0 0 0 4 2 23 23 0 0 1 0 12c-3 2-6 4-10 4z"/></symbol>
<symbol id="warning" viewBox="0 0 32 32"><path d="m16 3 13 27H3L16 3zm0-3-2 1L0 29c-1 1 0 3 2 3h28c2 0 3-2 2-3L18 1l-2-1z"/><path d="M18 26a2 2 0 1 1-4 0 2 2 0 0 1 4 0zM16 22l-2-2v-6a2 2 0 1 1 4 0v6l-2 2z"/></symbol>
<symbol id="notification" viewBox="0 0 32 32"><path d="M16 3c-3 0-7 1-9 4s-4 6-4 9 1 7 4 9 6 4 9 4 7-1 9-4 4-6 4-9-1-7-4-9-6-4-9-4zm0-3a16 16 0 1 1 0 32 16 16 0 0 1 0-32zm-2 22h4v4h-4zm0-16h4v12h-4z"/></symbol>
<symbol id="question" viewBox="0 0 32 32"><path d="M14 22h4v4h-4zm8-14 2 2v6l-6 4h-4v-2l6-4v-2H10V8h12zm-6-5c-3 0-7 1-9 4s-4 6-4 9 1 7 4 9 6 4 9 4 7-1 9-4 4-6 4-9-1-7-4-9-6-4-9-4zm0-3a16 16 0 1 1 0 32 16 16 0 0 1 0-32z"/></symbol>
<symbol id="cancel-circle" viewBox="0 0 32 32"><path d="M16 0a16 16 0 1 0 0 32 16 16 0 0 0 0-32zm0 29a13 13 0 1 1 0-26 13 13 0 0 1 0 26z"/><path d="m21 8-5 5-5-5-3 3 5 5-5 5 3 3 5-5 5 5 3-3-5-5 5-5z"/></symbol>
<symbol id="plus" viewBox="0 0 32 32">
<path d="M31 12h-11v-11c0-0.552-0.448-1-1-1h-6c-0.552 0-1 0.448-1 1v11h-11c-0.552 0-1 0.448-1 1v6c0 0.552 0.448 1 1 1h11v11c0 0.552 0.448 1 1 1h6c0.552 0 1-0.448 1-1v-11h11c0.552 0 1-0.448 1-1v-6c0-0.552-0.448-1-1-1z"></path>
</symbol>
<symbol id="minus" viewBox="0 0 32 32">
<path d="M0 13v6c0 0.552 0.448 1 1 1h30c0.552 0 1-0.448 1-1v-6c0-0.552-0.448-1-1-1h-30c-0.552 0-1 0.448-1 1z"></path>
</symbol>
<symbol id="checkmark" viewBox="0 0 32 32">
<path d="M27 4l-15 15-7-7-5 5 12 12 20-20z"></path>
</symbol>
<symbol id="blocked" viewBox="0 0 32 32"><path d="M27 5A16 16 0 0 0 5 5a16 16 0 0 0 0 22 16 16 0 0 0 22 0 16 16 0 0 0 0-22zm1 11-2 7L9 6l7-2c7 0 12 5 12 12zM4 16l2-7 17 17-7 2C9 28 4 23 4 16z"/></symbol>
<symbol id="cross" viewBox="0 0 32 32"><path d="M32 26 22 16 32 6a1 1 0 0 0 0-1l-5-5a1 1 0 0 0-1 0L16 10 6 0a1 1 0 0 0-1 0L0 5a1 1 0 0 0 0 1l10 10L0 26v1l5 5a1 1 0 0 0 1 0l10-10 10 10a1 1 0 0 0 1 0l5-5a1 1 0 0 0 0-1z"/></symbol>
<symbol id="home1" viewBox="0 0 32 32"><path d="M32 18 16 6 0 18v-5L16 1l16 12zm-4 0v12h-8v-8h-8v8H4V18l12-9z"/></symbol>
<symbol id="home" viewBox="0 0 32 32">
<path d="M32 18.451l-16-12.42-16 12.42v-5.064l16-12.42 16 12.42zM28 18v12h-8v-8h-8v8h-8v-12l12-9z"></path>
</symbol>
<symbol id="pencil" viewBox="0 0 32 32">
<path d="M27 0c2.761 0 5 2.239 5 5 0 1.126-0.372 2.164-1 3l-2 2-7-7 2-2c0.836-0.628 1.874-1 3-1zM2 23l-2 9 9-2 18.5-18.5-7-7-18.5 18.5zM22.362 11.362l-14 14-1.724-1.724 14-14 1.724 1.724z"></path>
</symbol>
<symbol id="quill" viewBox="0 0 32 32">
<path d="M0 32c4-12 14.469-32 32-32-8.219 6.594-12 22-18 22s-6 0-6 0l-6 10h-2z"></path>
</symbol>
<symbol id="bell" viewBox="0 0 32 32">
<path d="M32.047 25c0-9-8-7-8-14 0-0.58-0.056-1.076-0.158-1.498-0.526-3.532-2.88-6.366-5.93-7.23 0.027-0.123 0.041-0.251 0.041-0.382 0-1.040-0.9-1.891-2-1.891s-2 0.851-2 1.891c0 0.131 0.014 0.258 0.041 0.382-3.421 0.969-5.966 4.416-6.039 8.545-0.001 0.060-0.002 0.121-0.002 0.183 0 7-8 5-8 14 0 2.382 5.331 4.375 12.468 4.878 0.673 1.263 2.002 2.122 3.532 2.122s2.86-0.86 3.532-2.122c7.137-0.503 12.468-2.495 12.468-4.878 0-0.007-0.001-0.014-0.001-0.021l0.048 0.021zM25.82 26.691c-1.695 0.452-3.692 0.777-5.837 0.958-0.178-2.044-1.893-3.648-3.984-3.648s-3.805 1.604-3.984 3.648c-2.144-0.18-4.142-0.506-5.837-0.958-2.332-0.622-3.447-1.318-3.855-1.691 0.408-0.372 1.523-1.068 3.855-1.691 2.712-0.724 6.199-1.122 9.82-1.122s7.109 0.398 9.82 1.122c2.332 0.622 3.447 1.318 3.855 1.691-0.408 0.372-1.523 1.068-3.855 1.691z"></path>
</symbol>
<symbol id="snow-pill" viewBox="0 0 32 32">
<path d="M16 0c-8.837 0-16 7.163-16 16s7.163 16 16 16 16-7.163 16-16-7.163-16-16-16zM10 16c0-3.314 2.686-6 6-6s6 2.686 6 6-2.686 6-6 6-6-2.686-6-6zM28.937 21.359v0l-5.544-2.297c0.391-0.943 0.608-1.977 0.608-3.062s-0.216-2.119-0.608-3.062l5.544-2.297c0.685 1.651 1.063 3.46 1.063 5.359s-0.379 3.708-1.063 5.359v0zM21.359 3.063v0 0l-2.297 5.544c-0.943-0.391-1.977-0.607-3.062-0.607s-2.119 0.216-3.062 0.607l-2.297-5.544c1.651-0.684 3.46-1.063 5.359-1.063s3.708 0.379 5.359 1.063zM3.063 10.641l5.544 2.297c-0.391 0.943-0.608 1.977-0.608 3.062s0.216 2.119 0.607 3.062l-5.544 2.297c-0.685-1.651-1.063-3.46-1.063-5.359s0.379-3.708 1.063-5.359zM10.641 28.937l2.297-5.544c0.943 0.391 1.977 0.608 3.062 0.608s2.119-0.216 3.062-0.608l2.297 5.544c-1.651 0.684-3.46 1.063-5.359 1.063s-3.708-0.379-5.359-1.063z"></path>
</symbol>
<symbol id="arrow-right" viewBox="0 0 32 32"><path d="M31 16 16 1v9H0v12h16v9z"/></symbol>
<symbol id="arrow-left" viewBox="0 0 32 32"><path d="m1 16 15 15v-9h16V10H16V1z"/></symbol>
<symbol id="checkbox-checked" viewBox="0 0 32 32"><path d="M28 0H4C2 0 0 2 0 4v24c0 2 2 4 4 4h24c2 0 4-2 4-4V4c0-2-2-4-4-4zM14 25l-7-8 2-2 5 4 10-9 2 2-12 13z"/></symbol>
<symbol id="checkbox-unchecked" viewBox="0 0 32 32"><path d="M28 0H4C2 0 0 2 0 4v24c0 2 2 4 4 4h24c2 0 4-2 4-4V4c0-2-2-4-4-4zm0 28H4V4h24v24z"/></symbol>
<symbol id="five-px" viewBox="0 0 32 32">
<path d="M7.906 21.025c0.006 0.019 0.175 0.475 0.269 0.706 0.525 1.244 1.281 2.369 2.244 3.331s2.081 1.719 3.331 2.244c1.294 0.544 2.663 0.825 4.075 0.825s2.788-0.275 4.075-0.825c1.25-0.525 2.369-1.281 3.331-2.244s1.719-2.081 2.244-3.331c0.544-1.294 0.825-2.663 0.825-4.075s-0.275-2.787-0.825-4.075c-0.525-1.25-1.281-2.369-2.244-3.331s-2.081-1.719-3.331-2.244c-1.294-0.544-2.663-0.825-4.075-0.825-1.431 0-2.863 0.287-4.131 0.825-1.019 0.431-2.744 1.537-3.75 2.581l-0.006 0.006v-8.625h14.481c0.525-0.006 0.525-0.744 0.525-0.981 0-0.244 0-0.975-0.531-0.981h-15.656c-0.425 0-0.688 0.356-0.688 0.681v12.131c0 0.394 0.488 0.675 0.944 0.769 0.887 0.188 1.088-0.094 1.306-0.394l0.031-0.037c0.331-0.494 1.363-1.531 1.375-1.544 1.613-1.613 3.769-2.5 6.075-2.5 2.294 0 4.444 0.887 6.056 2.5 1.619 1.619 2.512 3.763 2.512 6.037 0 2.281-0.887 4.431-2.5 6.038-1.587 1.587-3.813 2.5-6.094 2.5-1.544 0-3.037-0.413-4.319-1.194l0.006-7.375c0-0.981 0.425-2.056 1.144-2.863 0.819-0.925 1.944-1.431 3.175-1.431 1.188 0 2.3 0.45 3.131 1.269 0.819 0.813 1.275 1.9 1.275 3.056 0 2.462-1.938 4.394-4.412 4.394-0.475 0-1.344-0.212-1.381-0.219-0.5-0.15-0.713 0.544-0.781 0.775-0.269 0.881 0.137 1.056 0.219 1.081 0.794 0.25 1.319 0.294 2.006 0.294 3.494 0 6.337-2.844 6.337-6.338 0-3.469-2.844-6.287-6.331-6.287-1.712 0-3.319 0.656-4.525 1.838-1.15 1.131-1.806 2.637-1.806 4.137v0.038c-0.006 0.188-0.006 4.613-0.012 6.063l-0.006-0.006c-0.656-0.725-1.306-1.837-1.738-2.975-0.169-0.444-0.55-0.369-1.069-0.206-0.25 0.069-0.938 0.281-0.781 0.788v0zM15.35 19.294c0 0.212 0.194 0.4 0.313 0.506l0.037 0.038c0.2 0.194 0.387 0.294 0.563 0.294 0.144 0 0.231-0.069 0.262-0.1 0.087-0.081 1.075-1.087 1.175-1.181l1.106 1.1c0.1 0.113 0.212 0.175 0.344 0.175 0.175 0 0.369-0.106 0.569-0.313 0.475-0.488 0.238-0.75 0.125-0.875l-1.119-1.119 1.169-1.175c0.256-0.275 0.031-0.569-0.194-0.794-0.325-0.325-0.644-0.412-0.844-0.225l-1.163 1.162-1.175-1.175c-0.063-0.063-0.144-0.094-0.225-0.094-0.156 0-0.344 0.106-0.55 0.313-0.363 0.363-0.438 0.613-0.25 0.813l1.175 1.169-1.169 1.169c-0.106 0.1-0.156 0.206-0.15 0.313zM17.906 3.431c-1.875 0-3.875 0.381-5.338 1.012-0.156 0.063-0.25 0.188-0.269 0.362-0.019 0.169 0.025 0.388 0.137 0.675 0.094 0.231 0.331 0.85 0.8 0.669 1.5-0.575 3.162-0.888 4.669-0.888 1.712 0 3.375 0.338 4.938 0.994 1.244 0.525 2.413 1.287 3.688 2.388 0.094 0.081 0.194 0.119 0.294 0.119 0.25 0 0.488-0.244 0.694-0.475 0.337-0.381 0.575-0.7 0.238-1.019-1.219-1.15-2.55-2.013-4.2-2.712-1.788-0.744-3.694-1.125-5.65-1.125zM28.012 26.6v0c-0.225-0.225-0.419-0.356-0.587-0.406s-0.325-0.012-0.444 0.106l-0.113 0.113c-1.163 1.163-2.519 2.075-4.025 2.712-1.563 0.663-3.219 0.994-4.925 0.994-1.712 0-3.369-0.337-4.925-0.994-1.506-0.637-2.863-1.55-4.025-2.712-1.213-1.212-2.125-2.569-2.713-4.025-0.575-1.425-0.763-2.494-0.825-2.844-0.006-0.031-0.013-0.056-0.013-0.075-0.081-0.413-0.463-0.444-1.006-0.356-0.225 0.038-0.919 0.144-0.856 0.637v0.012c0.181 1.156 0.506 2.288 0.963 3.363 0.731 1.731 1.781 3.288 3.119 4.625s2.894 2.381 4.625 3.119c1.794 0.756 3.7 1.144 5.662 1.144s3.869-0.387 5.663-1.144c1.731-0.731 3.288-1.781 4.625-3.119 0 0 0.075-0.075 0.119-0.119 0.137-0.169 0.269-0.45-0.319-1.031z"></path>
</symbol>
</defs></svg>
